{
  "accessors": [
    {
      "bufferView": 2,
      "componentType": 5126,
      "count": 494,
      "max": [
        0.9440825581550598,
        3.1925747394561768,
        3.169600486755371
      ],
      "min": [
        -0.944082498550415,
        -0.758026123046875,
        -0.9451192617416382
      ],
      "type": "VEC3"
    },
    {
      "bufferView": 2,
      "byteOffset": 5928,
      "componentType": 5126,
      "count": 494,
      "max": [
        0.9996529817581177,
        0.9999266862869263,
        0.9958789348602295
      ],
      "min": [
        -0.9996836185455322,
        -0.9999433755874634,
        -0.9982076287269592
      ],
      "type": "VEC3"
    },
    {
      "bufferView": 1,
      "componentType": 5126,
      "count": 494,
      "max": [
        0.5350559949874878,
        0.3275611698627472
      ],
      "min": [
        0.47007888555526733,
        0.06930536031723022
      ],
      "type": "VEC2"
    },
    {
      "bufferView": 0,
      "componentType": 5125,
      "count": 2352,
      "type": "SCALAR"
    },
    {
      "bufferView": 2,
      "byteOffset": 11856,
      "componentType": 5126,
      "count": 258,
      "max": [
        3.7330946922302246,
        5.031500339508057,
        0.7011489272117615
      ],
      "min": [
        -3.7330946922302246,
        3.352487564086914,
        -0.9778635501861572
      ],
      "type": "VEC3"
    },
    {
      "bufferView": 2,
      "byteOffset": 14952,
      "componentType": 5126,
      "count": 258,
      "max": [
        1.0,
        1.0,
        1.0
      ],
      "min": [
        -1.0,
        -1.0,
        -1.0
      ],
      "type": "VEC3"
    },
    {
      "bufferView": 1,
      "byteOffset": 3952,
      "componentType": 5126,
      "count": 258,
      "max": [
        0.14583472907543182,
        0.11407867819070816
      ],
      "min": [
        0.13915075361728668,
        0.08464010059833527
      ],
      "type": "VEC2"
    },
    {
      "bufferView": 0,
      "byteOffset": 9408,
      "componentType": 5125,
      "count": 1152,
      "type": "SCALAR"
    },
    {
      "bufferView": 2,
      "byteOffset": 18048,
      "componentType": 5126,
      "count": 270,
      "max": [
        10.684072494506836,
        12.623714447021484,
        0.3419176936149597
      ],
      "min": [
        -10.684072494506836,
        10.944700241088867,
        -1.3370949029922485
      ],
      "type": "VEC3"
    },
    {
      "bufferView": 2,
      "byteOffset": 21288,
      "componentType": 5126,
      "count": 270,
      "max": [
        1.0,
        1.0,
        1.0
      ],
      "min": [
        -1.0,
        -1.0,
        -1.0
      ],
      "type": "VEC3"
    },
    {
      "bufferView": 1,
      "byteOffset": 6016,
      "componentType": 5126,
      "count": 270,
      "max": [
        0.5882517695426941,
        0.2966436743736267
      ],
      "min": [
        0.5703495740890503,
        0.07729241251945496
      ],
      "type": "VEC2"
    },
    {
      "bufferView": 0,
      "byteOffset": 14016,
      "componentType": 5125,
      "count": 1152,
      "type": "SCALAR"
    },
    {
      "bufferView": 2,
      "byteOffset": 24528,
      "componentType": 5126,
      "count": 123,
      "max": [
        0.7458059787750244,
        4.6894707679748535,
        -1.1151952743530273
      ],
      "min": [
        -0.6721029877662659,
        3.375539779663086,
        -2.794207811355591
      ],
      "type": "VEC3"
    },
    {
      "bufferView": 2,
      "byteOffset": 26004,
      "componentType": 5126,
      "count": 123,
      "max": [
        0.9957547187805176,
        0.9996135234832764,
        1.0
      ],
      "min": [
        -0.9957547187805176,
        -0.9996922016143799,
        -1.0
      ],
      "type": "VEC3"
    },
    {
      "bufferView": 1,
      "byteOffset": 8176,
      "componentType": 5126,
      "count": 123,
      "max": [
        0.6330958604812622,
        0.3191615343093872
      ],
      "min": [
        0.6253197193145752,
        0.25915345549583435
      ],
      "type": "VEC2"
    },
    {
      "bufferView": 0,
      "byteOffset": 18624,
      "componentType": 5125,
      "count": 576,
      "type": "SCALAR"
    },
    {
      "bufferView": 2,
      "byteOffset": 27480,
      "componentType": 5126,
      "count": 120,
      "max": [
        2.9279441833496094,
        -0.18908628821372986,
        3.9799728393554688
      ],
      "min": [
        -2.9279441833496094,
        -2.028592824935913,
        2.146639108657837
      ],
      "type": "VEC3"
    },
    {
      "bufferView": 2,
      "byteOffset": 28920,
      "componentType": 5126,
      "count": 120,
      "max": [
        0.9998513460159302,
        1.0,
        0.9998513460159302
      ],
      "min": [
        -0.9998513460159302,
        -1.0,
        -0.9998513460159302
      ],
      "type": "VEC3"
    },
    {
      "bufferView": 1,
      "byteOffset": 9160,
      "componentType": 5126,
      "count": 120,
      "max": [
        0.14169834554195404,
        0.0723128393292427
      ],
      "min": [
        0.13043896853923798,
        0.03622728958725929
      ],
      "type": "VEC2"
    },
    {
      "bufferView": 0,
      "byteOffset": 20928,
      "componentType": 5125,
      "count": 480,
      "type": "SCALAR"
    },
    {
      "bufferView": 2,
      "byteOffset": 30360,
      "componentType": 5126,
      "count": 330,
      "max": [
        4.724584579467773,
        2.2488760948181152,
        9.006093978881836
      ],
      "min": [
        -4.724584579467773,
        -0.05142320320010185,
        6.405450820922852
      ],
      "type": "VEC3"
    },
    {
      "bufferView": 2,
      "byteOffset": 34320,
      "componentType": 5126,
      "count": 330,
      "max": [
        0.9995005130767822,
        0.9997267723083496,
        0.9979599118232727
      ],
      "min": [
        -0.9995005130767822,
        -0.9999526739120483,
        -0.9679213166236877
      ],
      "type": "VEC3"
    },
    {
      "bufferView": 1,
      "byteOffset": 10120,
      "componentType": 5126,
      "count": 330,
      "max": [
        0.15152372419834137,
        0.06905381381511688
      ],
      "min": [
        0.12772215902805328,
        0.021435270085930824
      ],
      "type": "VEC2"
    },
    {
      "bufferView": 0,
      "byteOffset": 22848,
      "componentType": 5125,
      "count": 1152,
      "type": "SCALAR"
    },
    {
      "bufferView": 2,
      "byteOffset": 38280,
      "componentType": 5126,
      "count": 123,
      "max": [
        0.6816901564598083,
        4.11140251159668,
        -1.6392370462417603
      ],
      "min": [
        -0.6079872250556946,
        3.3779587745666504,
        -2.2843573093414307
      ],
      "type": "VEC3"
    },
    {
      "bufferView": 2,
      "byteOffset": 39756,
      "componentType": 5126,
      "count": 123,
      "max": [
        0.9768186211585999,
        0.9945922493934631,
        0.9999860525131226
      ],
      "min": [
        -0.9768186211585999,
        -0.9875859618186951,
        -0.9999078512191772
      ],
      "type": "VEC3"
    },
    {
      "bufferView": 1,
      "byteOffset": 12760,
      "componentType": 5126,
      "count": 123,
      "max": [
        0.5336720943450928,
        0.1385054886341095
      ],
      "min": [
        0.5210644602775574,
        0.04121316596865654
      ],
      "type": "VEC2"
    },
    {
      "bufferView": 0,
      "byteOffset": 27456,
      "componentType": 5125,
      "count": 576,
      "type": "SCALAR"
    },
    {
      "bufferView": 2,
      "byteOffset": 41232,
      "componentType": 5126,
      "count": 310,
      "max": [
        4.500781536102295,
        1.5210524797439575,
        2.217414140701294
      ],
      "min": [
        -4.500781536102295,
        -0.474628746509552,
        -0.6171033978462219
      ],
      "type": "VEC3"
    },
    {
      "bufferView": 2,
      "byteOffset": 44952,
      "componentType": 5126,
      "count": 310,
      "max": [
        0.999990701675415,
        0.9999525547027588,
        0.9999170303344727
      ],
      "min": [
        -0.999990701675415,
        -0.9990395903587341,
        -0.9999039173126221
      ],
      "type": "VEC3"
    },
    {
      "bufferView": 1,
      "byteOffset": 13744,
      "componentType": 5126,
      "count": 310,
      "max": [
        0.5400220155715942,
        0.28915953636169434
      ],
      "min": [
        0.5154106616973877,
        0.06736842542886734
      ],
      "type": "VEC2"
    },
    {
      "bufferView": 0,
      "byteOffset": 29760,
      "componentType": 5125,
      "count": 1056,
      "type": "SCALAR"
    }
  ],
  "asset": {
    "extras": {
      "author": "KOMIRA.studio (https://sketchfab.com/komira)",
      "license": "CC-BY-4.0 (http://creativecommons.org/licenses/by/4.0/)",
      "source": "https://sketchfab.com/3d-models/pegion-2f6e0a400fb0439a9b64ca7549c51198",
      "title": "Pegion"
    },
    "generator": "Sketchfab-12.67.0",
    "version": "2.0"
  },
  "bufferViews": [
    {
      "buffer": 0,
      "byteLength": 33984,
      "name": "floatBufferViews",
      "target": 34963
    },
    {
      "buffer": 0,
      "byteLength": 16224,
      "byteOffset": 33984,
      "byteStride": 8,
      "name": "floatBufferViews",
      "target": 34962
    },
    {
      "buffer": 0,
      "byteLength": 48672,
      "byteOffset": 50208,
      "byteStride": 12,
      "name": "floatBufferViews",
      "target": 34962
    }
  ],
  "buffers": [
    {
      "byteLength": 98880,
      "uri": "scene.bin"
    }
  ],
  "images": [
    {
      "uri": "textures/Material.001_baseColor.png"
    }
  ],
  "materials": [
    {
      "doubleSided": true,
      "name": "Material.001",
      "pbrMetallicRoughness": {
        "baseColorTexture": {
          "index": 0
        },
        "metallicFactor": 0.12939368513215257
      }
    }
  ],
  "meshes": [
    {
      "name": "Object_0",
      "primitives": [
        {
          "attributes": {
            "NORMAL": 1,
            "POSITION": 0,
            "TEXCOORD_0": 2
          },
          "indices": 3,
          "material": 0,
          "mode": 4
        }
      ]
    },
    {
      "name": "Object_1",
      "primitives": [
        {
          "attributes": {
            "NORMAL": 5,
            "POSITION": 4,
            "TEXCOORD_0": 6
          },
          "indices": 7,
          "material": 0,
          "mode": 4
        }
      ]
    },
    {
      "name": "Object_2",
      "primitives": [
        {
          "attributes": {
            "NORMAL": 9,
            "POSITION": 8,
            "TEXCOORD_0": 10
          },
          "indices": 11,
          "material": 0,
          "mode": 4
        }
      ]
    },
    {
      "name": "Object_3",
      "primitives": [
        {
          "attributes": {
            "NORMAL": 13,
            "POSITION": 12,
            "TEXCOORD_0": 14
          },
          "indices": 15,
          "material": 0,
          "mode": 4
        }
      ]
    },
    {
      "name": "Object_4",
      "primitives": [
        {
          "attributes": {
            "NORMAL": 17,
            "POSITION": 16,
            "TEXCOORD_0": 18
          },
          "indices": 19,
          "material": 0,
          "mode": 4
        }
      ]
    },
    {
      "name": "Object_5",
      "primitives": [
        {
          "attributes": {
            "NORMAL": 21,
            "POSITION": 20,
            "TEXCOORD_0": 22
          },
          "indices": 23,
          "material": 0,
          "mode": 4
        }
      ]
    },
    {
      "name": "Object_6",
      "primitives": [
        {
          "attributes": {
            "NORMAL": 25,
            "POSITION": 24,
            "TEXCOORD_0": 26
          },
          "indices": 27,
          "material": 0,
          "mode": 4
        }
      ]
    },
    {
      "name": "Object_7",
      "primitives": [
        {
          "attributes": {
            "NORMAL": 29,
            "POSITION": 28,
            "TEXCOORD_0": 30
          },
          "indices": 31,
          "material": 0,
          "mode": 4
        }
      ]
    }
  ],
  "nodes": [
    {
      "children": [
        1
      ],
      "matrix": [
        0.11476647853851318,
        0.0,
        0.0,
        0.0,
        0.0,
        2.5483277385721244e-17,
        -0.11476647853851318,
        0.0,
        0.0,
        0.11476647853851318,
        2.5483277385721244e-17,
        0.0,
        0.0,
        0.0,
        0.0,
        1.0
      ],
      "name": "Sketchfab_model"
    },
    {
      "children": [
        2
      ],
      "name": "root"
    },
    {
      "children": [
        3
      ],
      "matrix": [
        1.0,
        0.0,
        0.0,
        0.0,
        0.0,
        2.220446049250313e-16,
        1.0,
        0.0,
        0.0,
        -1.0,
        2.220446049250313e-16,
        0.0,
        0.0,
        0.0,
        0.0,
        1.0
      ],
      "name": "GLTF_SceneRootNode"
    },
    {
      "children": [
        4,
        5,
        7,
        9,
        11,
        13,
        15,
        17
      ],
      "matrix": [
        0.9287446141242981,
        0.0,
        -0.0,
        0.0,
        -0.0,
        0.9283881713804005,
        -0.02572861259079831,
        0.0,
        0.0,
        0.02572861259079831,
        0.9283881713804005,
        0.0,
        0.0,
        1.1599836349487305,
        -0.5709419846534729,
        1.0
      ],
      "name": "Pigeon_7"
    },
    {
      "mesh": 0,
      "name": "Object_4"
    },
    {
      "children": [
        6
      ],
      "matrix": [
        0.287470988095191,
        0.0,
        -0.026830308715010017,
        0.0,
        0.0,
        0.5268669724464417,
        0.0,
        0.0,
        0.048960896705746305,
        0.0,
        0.5245872309383235,
        0.0,
        0.0,
        0.0,
        0.0,
        1.0
      ],
      "name": "Cube.002_0"
    },
    {
      "mesh": 1,
      "name": "Object_6"
    },
    {
      "children": [
        8
      ],
      "matrix": [
        0.10380444970872074,
        0.0,
        0.010948146795153359,
        0.0,
        -0.0,
        0.1904766857624054,
        0.0,
        0.0,
        -0.01997856956159987,
        -0.0,
        0.1894260698283067,
        0.0,
        0.0,
        0.0,
        0.0,
        1.0
      ],
      "name": "Cube.003_1"
    },
    {
      "mesh": 2,
      "name": "Object_8"
    },
    {
      "children": [
        10
      ],
      "matrix": [
        0.4739845395088196,
        0.0,
        0.0,
        0.0,
        0.0,
        0.47398459911346436,
        0.0,
        0.0,
        0.0,
        0.0,
        0.47398459911346436,
        0.0,
        0.0,
        0.0,
        0.0,
        1.0
      ],
      "name": "Cube.004_2"
    },
    {
      "mesh": 3,
      "name": "Object_10"
    },
    {
      "children": [
        12
      ],
      "matrix": [
        0.19290800392627716,
        0.0,
        0.0,
        0.0,
        0.0,
        0.6180196457724845,
        0.01712730713469653,
        0.0,
        0.0,
        -0.005344048316146085,
        0.19283398267816285,
        0.0,
        0.0,
        0.13453297317028046,
        0.11351001262664795,
        1.0
      ],
      "name": "Cube.005_3"
    },
    {
      "mesh": 4,
      "name": "Object_12"
    },
    {
      "children": [
        14
      ],
      "matrix": [
        0.15272754430770874,
        0.0,
        0.0,
        0.0,
        0.0,
        0.009515595294892291,
        0.4893888586387609,
        0.0,
        0.0,
        -0.15269869709978975,
        0.0029690479830303583,
        0.0,
        0.0,
        0.0,
        0.0,
        1.0
      ],
      "name": "Cube.006_4"
    },
    {
      "mesh": 5,
      "name": "Object_14"
    },
    {
      "children": [
        16
      ],
      "matrix": [
        0.4739845395088196,
        0.0,
        0.0,
        0.0,
        0.0,
        0.47398459911346436,
        0.0,
        0.0,
        0.0,
        0.0,
        0.47398459911346436,
        0.0,
        0.0,
        0.36335352063179016,
        0.010069668292999268,
        1.0
      ],
      "name": "Cube.011_5"
    },
    {
      "mesh": 6,
      "name": "Object_16"
    },
    {
      "children": [
        18
      ],
      "matrix": [
        0.2715192139148712,
        0.0,
        0.0,
        0.0,
        0.0,
        0.6361679667567838,
        0.09129796439996024,
        0.0,
        0.0,
        -0.10104423779021397,
        0.7040804001487397,
        0.0,
        0.0,
        0.0,
        0.0,
        1.0
      ],
      "name": "wings_6"
    },
    {
      "mesh": 7,
      "name": "Object_18"
    }
  ],
  "samplers": [
    {
      "magFilter": 9729,
      "minFilter": 9987,
      "wrapS": 10497,
      "wrapT": 10497
    }
  ],
  "scene": 0,
  "scenes": [
    {
      "name": "Sketchfab_Scene",
      "nodes": [
        0
      ]
    }
  ],
  "textures": [
    {
      "sampler": 0,
      "source": 0
    }
  ]
}
