<svg xmlns="http://www.w3.org/2000/svg" version="1.1" xmlns:xlink="http://www.w3.org/1999/xlink" xmlns:svgjs="http://svgjs.dev/svgjs" width="2000" height="1247" viewBox="0 0 2000 1247"><g transform="matrix(1,0,0,1,-1.2121212121212466,249.25268817731967)"><svg viewBox="0 0 396 247" data-background-color="#001f3f" preserveAspectRatio="xMidYMid meet" height="1247" width="2000" xmlns="http://www.w3.org/2000/svg" xmlns:xlink="http://www.w3.org/1999/xlink"><g id="tight-bounds" transform="matrix(1,0,0,1,0.2400000000000091,-0.09999999999999432)"><svg viewBox="0 0 395.52 247.2" height="247.2" width="395.52"><g><svg></svg></g><g><svg viewBox="0 0 395.52 247.2" height="247.2" width="395.52"><g transform="matrix(1,0,0,1,75.54432,64.75541333333334)"><svg viewBox="0 0 244.43135999999998 117.68917333333331" height="117.68917333333331" width="244.43135999999998"><g><svg viewBox="0 0 244.43135999999998 117.68917333333331" height="117.68917333333331" width="244.43135999999998"><g><svg viewBox="0 0 244.43135999999998 117.68917333333331" height="117.68917333333331" width="244.43135999999998"><g><svg viewBox="0 0 244.43135999999998 117.68917333333331" height="117.68917333333331" width="244.43135999999998"><g id="textblocktransform"><svg viewBox="0 0 244.43135999999998 117.68917333333331" height="117.68917333333331" width="244.43135999999998" id="textblock"><g><svg viewBox="0 0 244.43135999999998 117.68917333333331" height="117.68917333333331" width="244.43135999999998"><g transform="matrix(1,0,0,1,0,0)"><svg width="244.43135999999998" viewBox="0.3800000250339508 -35.43000030517578 73.56999969482422 35.43000030517578" height="117.68917333333331" data-palette-color="#ffdc00"><path d="M17.4-35.38L31.88 0 29.9 0Q29.55 0 29.33-0.19 29.1-0.38 28.98-0.68L28.98-0.68 24.8-10.95 7.43-10.95 3.28-0.68Q3.18-0.4 2.93-0.2 2.68 0 2.33 0L2.33 0 0.38 0 14.85-35.38 17.4-35.38ZM15.43-30.7L8.2-12.85 24.05-12.85 16.82-30.73Q16.65-31.15 16.48-31.69 16.3-32.23 16.13-32.83L16.13-32.83Q15.95-32.23 15.78-31.69 15.6-31.15 15.43-30.7L15.43-30.7ZM50.42-35.43L50.42-19.05 52.52-19.05Q53-19.05 53.35-19.09 53.7-19.13 53.98-19.24 54.27-19.35 54.52-19.53 54.77-19.7 55.05-19.98L55.05-19.98 69.32-34.65Q69.72-35.05 70.06-35.21 70.4-35.38 70.9-35.38L70.9-35.38 72.97-35.38 57.52-19.5Q57.05-19 56.68-18.73 56.32-18.45 55.87-18.28L55.87-18.28Q56.4-18.13 56.81-17.81 57.22-17.5 57.65-17L57.65-17 73.95 0 71.87 0Q71.22 0 70.95-0.19 70.67-0.38 70.37-0.68L70.37-0.68 55.4-15.98Q55.12-16.25 54.9-16.45 54.67-16.65 54.38-16.79 54.1-16.93 53.7-16.99 53.3-17.05 52.7-17.05L52.7-17.05 50.42-17.05 50.42 0 47.87 0 47.87-35.43 50.42-35.43Z" opacity="1" transform="matrix(1,0,0,1,0,0)" fill="#ffdc00" class="wordmark-text-0" data-fill-palette-color="primary" id="text-0"></path></svg></g></svg></g></svg></g></svg></g><g></g></svg></g></svg></g></svg></g><g><path d="M111.55 36.972A122.216 122.216 0 0 1 283.97 36.972L273.357 36.972A111.602 111.602 0 0 0 122.163 36.972L111.55 36.972M111.55 210.228A122.216 122.216 0 0 0 283.97 210.228L273.357 210.228A111.602 111.602 0 0 1 122.163 210.228L111.55 210.228" fill="#faff02" stroke="transparent" data-fill-palette-color="tertiary"></path></g></svg></g><defs></defs></svg><rect width="395.52" height="247.2" fill="none" stroke="none" visibility="hidden"></rect></g></svg></g></svg>